<svg width="240" height="259" viewBox="0 0 240 259" fill="none" xmlns="http://www.w3.org/2000/svg">
<g clip-path="url(#clip0_1572_17)">
<path d="M229.39 128.153L130.61 29.3725C124.78 23.5425 115.23 23.5425 109.4 29.3725L10.61 128.153C4.78 133.983 0 145.512 0 153.762V243.762C0 252.012 6.75 258.762 15 258.762H107.27L66.64 218.132C64.55 218.852 62.32 219.262 60 219.262C48.7 219.262 39.5 210.062 39.5 198.762C39.5 187.462 48.7 178.262 60 178.262C71.3 178.262 80.5 187.462 80.5 198.762C80.5 201.092 80.09 203.322 79.37 205.412L111 237.042V121.162C104.2 117.822 99.5 110.842 99.5 102.772C99.5 91.472 108.7 82.272 120 82.272C131.3 82.272 140.5 91.472 140.5 102.772C140.5 110.842 135.8 117.822 129 121.162V202.432L160.46 170.972C159.84 169.012 159.5 166.932 159.5 164.772C159.5 153.472 168.7 144.272 180 144.272C191.3 144.272 200.5 153.472 200.5 164.772C200.5 176.072 191.3 185.272 180 185.272C177.5 185.272 175.12 184.802 172.91 183.982L129 227.892V258.772H225C233.25 258.772 240 252.022 240 243.772V153.772C240 145.522 235.23 134.002 229.39 128.162V128.153Z" fill="#18BCF2"/>
<path d="M164.925 7.08413C167.674 4.20886 171.378 2.43546 175.341 2.09671C179.304 1.75796 183.255 2.87714 186.452 5.24424L188.021 6.56042L228.162 44.9441C231.164 47.8148 232.96 51.7215 233.183 55.8692C233.407 60.0169 232.042 64.094 229.366 67.271C226.69 70.448 222.905 72.4861 218.779 72.9707C214.654 73.4553 210.499 72.3499 207.16 69.8794L205.59 68.5633L165.449 30.1796C163.899 28.6966 162.657 26.9229 161.793 24.9598C160.929 22.9966 160.46 20.8825 160.413 18.7381C160.365 16.5937 160.741 14.461 161.518 12.4618C162.295 10.4625 163.442 8.63378 164.925 7.08413Z" fill="#18BCF2"/>
<path d="M74.6913 7.08413C71.9427 4.20886 68.2392 2.43546 64.2759 2.09671C60.3126 1.75796 56.3619 2.87714 53.1652 5.24424L51.5959 6.56042L11.4547 44.9441C8.45259 47.8148 6.657 51.7215 6.43328 55.8692C6.20956 60.0169 7.5745 64.094 10.2504 67.271C12.9263 70.448 16.7121 72.4861 20.8375 72.9707C24.9628 73.4553 29.1179 72.3499 32.4571 69.8794L34.0264 68.5633L74.1676 30.1796C75.7173 28.6966 76.9597 26.9229 77.8238 24.9598C78.688 22.9966 79.157 20.8825 79.2042 18.7381C79.2513 16.5937 78.8756 14.461 78.0985 12.4618C77.3214 10.4625 76.1743 8.63378 74.6913 7.08413Z" fill="#18BCF2"/>
</g>
<defs>
<clipPath id="clip0_1572_17">
<rect width="240" height="259" fill="white"/>
</clipPath>
</defs>
</svg>
